<svg width="30" height="30" viewBox="0 0 30 30" fill="none" xmlns="http://www.w3.org/2000/svg">
<path d="M16.0417 20.4225H7.29168C6.9049 20.4225 6.53397 20.5761 6.26048 20.8496C5.98699 21.1231 5.83335 21.494 5.83335 21.8808C5.83335 22.2676 5.98699 22.6385 6.26048 22.912C6.53397 23.1855 6.9049 23.3391 7.29168 23.3391H16.0417C16.4285 23.3391 16.7994 23.1855 17.0729 22.912C17.3464 22.6385 17.5 22.2676 17.5 21.8808C17.5 21.494 17.3464 21.1231 17.0729 20.8496C16.7994 20.5761 16.4285 20.4225 16.0417 20.4225ZM10.2083 11.6725H13.125C13.5118 11.6725 13.8827 11.5188 14.1562 11.2453C14.4297 10.9718 14.5833 10.6009 14.5833 10.2141C14.5833 9.82735 14.4297 9.45642 14.1562 9.18293C13.8827 8.90944 13.5118 8.7558 13.125 8.7558H10.2083C9.82157 8.7558 9.45064 8.90944 9.17715 9.18293C8.90366 9.45642 8.75001 9.82735 8.75001 10.2141C8.75001 10.6009 8.90366 10.9718 9.17715 11.2453C9.45064 11.5188 9.82157 11.6725 10.2083 11.6725ZM27.7083 14.5891H23.3333V1.46413C23.3344 1.20716 23.2675 0.954477 23.1394 0.731676C23.0114 0.508875 22.8267 0.323865 22.6042 0.19538C22.3825 0.0673842 22.131 0 21.875 0C21.619 0 21.3675 0.0673842 21.1458 0.19538L16.7708 2.70371L12.3958 0.19538C12.1742 0.0673842 11.9227 0 11.6667 0C11.4107 0 11.1592 0.0673842 10.9375 0.19538L6.56251 2.70371L2.18751 0.19538C1.96582 0.0673842 1.71434 0 1.45834 0C1.20235 0 0.950873 0.0673842 0.729178 0.19538C0.50663 0.323865 0.321985 0.508875 0.193938 0.731676C0.0658916 0.954477 -0.00100871 1.20716 1.14959e-05 1.46413V24.7975C1.14959e-05 25.9578 0.460948 27.0706 1.28142 27.8911C2.10189 28.7115 3.21469 29.1725 4.37501 29.1725H24.7917C25.952 29.1725 27.0648 28.7115 27.8853 27.8911C28.7057 27.0706 29.1667 25.9578 29.1667 24.7975V16.0475C29.1667 15.6607 29.013 15.2898 28.7395 15.0163C28.4661 14.7428 28.0951 14.5891 27.7083 14.5891ZM4.37501 26.2558C3.98824 26.2558 3.61731 26.1022 3.34381 25.8287C3.07032 25.5552 2.91668 25.1842 2.91668 24.7975V3.98705L5.83335 5.64955C6.05842 5.7671 6.30858 5.8285 6.56251 5.8285C6.81644 5.8285 7.0666 5.7671 7.29168 5.64955L11.6667 3.14121L16.0417 5.64955C16.2668 5.7671 16.5169 5.8285 16.7708 5.8285C17.0248 5.8285 17.2749 5.7671 17.5 5.64955L20.4167 3.98705V24.7975C20.4206 25.295 20.5094 25.7881 20.6792 26.2558H4.37501ZM26.25 24.7975C26.25 25.1842 26.0964 25.5552 25.8229 25.8287C25.5494 26.1022 25.1785 26.2558 24.7917 26.2558C24.4049 26.2558 24.034 26.1022 23.7605 25.8287C23.487 25.5552 23.3333 25.1842 23.3333 24.7975V17.5058H26.25V24.7975ZM16.0417 14.5891H7.29168C6.9049 14.5891 6.53397 14.7428 6.26048 15.0163C5.98699 15.2898 5.83335 15.6607 5.83335 16.0475C5.83335 16.4342 5.98699 16.8052 6.26048 17.0787C6.53397 17.3521 6.9049 17.5058 7.29168 17.5058H16.0417C16.4285 17.5058 16.7994 17.3521 17.0729 17.0787C17.3464 16.8052 17.5 16.4342 17.5 16.0475C17.5 15.6607 17.3464 15.2898 17.0729 15.0163C16.7994 14.7428 16.4285 14.5891 16.0417 14.5891Z" fill="#0B9685"/>
</svg>
