<svg width="30" height="32" viewBox="0 0 30 32" fill="none" xmlns="http://www.w3.org/2000/svg">
<path d="M9.2085 25.2507C10.8127 25.2507 12.1252 26.5632 12.1252 28.1673C12.1252 29.7715 10.8127 31.084 9.2085 31.084C7.60433 31.084 6.29183 29.7715 6.29183 28.1673C6.29183 26.5632 7.60433 25.2507 9.2085 25.2507ZM23.7918 25.2507C25.396 25.2507 26.7085 26.5632 26.7085 28.1673C26.7085 29.7715 25.396 31.084 23.7918 31.084C22.1877 31.084 20.8752 29.7715 20.8752 28.1673C20.8752 26.5632 22.1877 25.2507 23.7918 25.2507ZM9.50016 20.584C9.50016 20.7298 9.646 20.8757 9.79183 20.8757H26.7085V23.7923H9.2085C7.60433 23.7923 6.29183 22.4798 6.29183 20.8757C6.29183 20.2923 6.43766 19.8548 6.5835 19.4173L8.47933 15.9173L3.37516 4.83398H0.458496V1.91732H5.271L11.5418 15.0423H21.7502L27.4377 4.83398L29.9168 6.29232L24.2293 16.5007C23.7918 17.3757 22.771 17.959 21.7502 17.959H10.8127L9.50016 20.2923V20.584ZM12.7085 0.458984C13.8752 0.458984 14.7502 1.33398 14.7502 2.50065C14.7502 3.66732 13.8752 4.54232 12.7085 4.54232C11.5418 4.54232 10.6668 3.66732 10.6668 2.50065C10.6668 1.33398 11.6877 0.458984 12.7085 0.458984ZM20.2918 12.1257C19.1252 12.1257 18.2502 11.2507 18.2502 10.084C18.2502 8.91732 19.1252 8.04232 20.2918 8.04232C21.4585 8.04232 22.3335 8.91732 22.3335 10.084C22.3335 11.2507 21.3127 12.1257 20.2918 12.1257ZM12.4168 12.1257L10.6668 10.3757L20.5835 0.458984L22.3335 2.20898L12.4168 12.1257Z" fill="#9504AD"/>
</svg>
