<svg width="32" height="27" viewBox="0 0 32 27" fill="none" xmlns="http://www.w3.org/2000/svg">
<path d="M22.875 4.64648V11.209C21.8511 11.2078 20.8384 11.4228 19.9033 11.84C18.9682 12.2572 18.1317 12.8671 17.4485 13.6298C16.2453 14.9666 15.5807 16.7021 15.5833 18.5007C15.5838 19.7913 15.9264 21.0587 16.5764 22.1738C17.2263 23.2888 18.1603 24.2116 19.2831 24.848C17.3421 25.435 14.7652 25.7923 11.9375 25.7923C5.89708 25.7923 1 24.1597 1 22.1465V4.64648" stroke="#5A3FFF" stroke-width="2" stroke-linecap="round" stroke-linejoin="round"/>
<path d="M30.1667 18.5C30.1667 22.5272 26.9022 25.7917 22.875 25.7917C21.5698 25.7917 20.3433 25.449 19.2831 24.8474C18.1603 24.211 17.2263 23.2882 16.5764 22.1731C15.9264 21.0581 15.5838 19.7906 15.5833 18.5C15.5833 16.6275 16.2892 14.9198 17.4485 13.6292C18.1317 12.8664 18.9682 12.2565 19.9033 11.8393C20.8384 11.4222 21.8511 11.2071 22.875 11.2083C26.9022 11.2083 30.1667 14.4728 30.1667 18.5ZM22.875 4.64583C22.875 6.65906 17.9779 8.29167 11.9375 8.29167C5.89708 8.29167 1 6.65906 1 4.64583C1 2.6326 5.89708 1 11.9375 1C17.9779 1 22.875 2.6326 22.875 4.64583Z" stroke="#5A3FFF" stroke-width="2" stroke-linecap="round" stroke-linejoin="round"/>
<path d="M1 16.3118C1 18.3251 5.89708 19.9577 11.9375 19.9577C13.2551 19.9577 14.5187 19.8804 15.6883 19.7375M1 10.4785C1 12.4917 5.89708 14.1243 11.9375 14.1243C13.9471 14.1243 15.8305 13.9435 17.4485 13.6285M25.0625 16.3118L20.6875 20.6868" stroke="#5A3FFF" stroke-width="2" stroke-linecap="round" stroke-linejoin="round"/>
</svg>
