<svg width="35" height="35" viewBox="0 0 35 35" fill="none" xmlns="http://www.w3.org/2000/svg">
<g clip-path="url(#clip0_73_8037)">
<path d="M35 22.5073V26.25H32.8125V23.4302L30.9497 21.5503L31.001 21.499C30.5452 21.7497 30.0382 21.875 29.48 21.875C28.9787 21.875 28.5173 21.7725 28.0957 21.5674L26.25 23.4302V26.25H24.0625V22.5073L26.5405 20.0464L26.4893 19.9268L22.1997 10.3223L15.2271 17.5171C15.2498 17.6994 15.2669 17.876 15.2783 18.0469C15.2897 18.2178 15.3011 18.4001 15.3125 18.5938V32.8125H17.5V35H0V32.8125H2.1875V18.5938C2.1875 17.7279 2.34701 16.9132 2.66602 16.1499C2.98503 15.3866 3.41797 14.7087 3.96484 14.1162C4.51172 13.5238 5.16113 13.0452 5.91309 12.6807C6.66504 12.3161 7.47396 12.1053 8.33984 12.0483L18.7305 1.33301C19.1406 0.900065 19.6191 0.569661 20.166 0.341797C20.7129 0.113932 21.2826 0 21.875 0C22.2738 0 22.6725 0.0569661 23.0713 0.170898C23.4701 0.284831 23.8517 0.455729 24.2163 0.683594C24.5809 0.911458 24.9056 1.1735 25.1904 1.46973C25.4753 1.76595 25.7031 2.10775 25.874 2.49512L32.4365 17.1582C32.5391 17.3861 32.6131 17.6196 32.6587 17.8589C32.7043 18.0981 32.7271 18.3374 32.7271 18.5767C32.7271 18.8501 32.6986 19.1178 32.6416 19.3799C32.5846 19.6419 32.4878 19.8983 32.3511 20.1489L32.4878 20.0122L35 22.5073ZM13.125 32.8125V18.5938C13.125 17.9899 13.0111 17.4259 12.7832 16.9019C12.5553 16.3778 12.242 15.9106 11.8433 15.5005C11.4445 15.0903 10.9831 14.777 10.459 14.5605C9.9349 14.3441 9.36523 14.2301 8.75 14.2188C8.14616 14.2188 7.58219 14.3327 7.05811 14.5605C6.53402 14.7884 6.06689 15.1017 5.65674 15.5005C5.24658 15.8993 4.93327 16.3607 4.7168 16.8848C4.50033 17.4089 4.38639 17.9785 4.375 18.5938V32.8125H13.125ZM11.0059 12.4243C11.7122 12.6864 12.356 13.0566 12.937 13.5352C13.5181 14.0137 14.0023 14.5776 14.3896 15.2271L23.4473 5.896C23.8574 5.46305 24.0625 4.95605 24.0625 4.375C24.0625 4.06738 24.0055 3.78255 23.8916 3.52051C23.7777 3.25846 23.6239 3.0306 23.4302 2.83691C23.2365 2.64323 23.0029 2.48372 22.7295 2.3584C22.4561 2.23307 22.1712 2.17611 21.875 2.1875C21.2484 2.1875 20.7243 2.40967 20.3027 2.854L11.0059 12.4243ZM25.4468 6.88721C25.2417 7.21761 24.991 7.51953 24.6948 7.79297C24.3986 8.06641 24.1138 8.34554 23.8403 8.63037L27.207 16.167L29.2065 15.3125L25.4468 6.88721ZM29.48 19.6875C29.8104 19.6875 30.0724 19.5793 30.2661 19.3628C30.4598 19.1463 30.5566 18.8843 30.5566 18.5767C30.5566 18.3488 30.5054 18.1323 30.4028 17.9272C30.3003 17.7222 30.1978 17.5171 30.0952 17.312L28.0957 18.1665C28.1641 18.3374 28.2324 18.514 28.3008 18.6963C28.3691 18.8786 28.4546 19.0438 28.5571 19.1919C28.6597 19.34 28.7793 19.4596 28.916 19.5508C29.0527 19.6419 29.2407 19.6875 29.48 19.6875ZM8.75 17.5C9.05762 17.5 9.34245 17.557 9.60449 17.6709C9.86654 17.7848 10.0944 17.9386 10.2881 18.1323C10.4818 18.326 10.6413 18.5596 10.7666 18.833C10.8919 19.1064 10.9489 19.3913 10.9375 19.6875C10.9375 19.9951 10.8805 20.2799 10.7666 20.542C10.6527 20.804 10.4989 21.0319 10.3052 21.2256C10.1115 21.4193 9.87793 21.5788 9.60449 21.7041C9.33105 21.8294 9.04622 21.8864 8.75 21.875C8.44238 21.875 8.15755 21.818 7.89551 21.7041C7.63346 21.5902 7.4056 21.4364 7.21191 21.2427C7.01823 21.049 6.85872 20.8154 6.7334 20.542C6.60807 20.2686 6.55111 19.9837 6.5625 19.6875C6.5625 19.3799 6.61947 19.0951 6.7334 18.833C6.84733 18.571 7.00114 18.3431 7.19482 18.1494C7.38851 17.9557 7.62207 17.7962 7.89551 17.6709C8.16895 17.5456 8.45378 17.4886 8.75 17.5Z" fill="#1877F2"/>
</g>
<defs>
<clipPath id="clip0_73_8037">
<rect width="35" height="35" fill="white"/>
</clipPath>
</defs>
</svg>
